<svg width="18" height="20" viewBox="0 0 18 20" fill="none" xmlns="http://www.w3.org/2000/svg">
<path fill-rule="evenodd" clip-rule="evenodd" d="M8.57808 2.03109C10.2152 -0.156522 13.2871 -0.65162 15.5261 0.91127C17.879 2.55375 18.4039 5.82433 16.6834 8.12334L14.3077 11.2978C12.6254 13.5459 9.44313 14.0015 7.2 12.3154L8.37915 10.7398C9.75398 11.7732 11.7044 11.4939 12.7355 10.1161L15.1112 6.9416C16.1642 5.53449 15.843 3.53272 14.4028 2.52743C13.0325 1.57086 11.1523 1.87389 10.1503 3.21282L7.60248 6.61732L6.03027 5.43558L8.57808 2.03109Z" fill="#191F28"/>
<path fill-rule="evenodd" clip-rule="evenodd" d="M8.98628 17.974C7.34796 20.0959 4.32334 20.5391 2.14518 18.9762C-0.143892 17.3339 -0.614651 14.1206 1.1071 11.8906L3.4845 8.81139C5.16807 6.63083 8.30056 6.22795 10.4811 7.91152L9.3011 9.43987C7.96463 8.40801 6.04472 8.65494 5.01285 9.99141L2.63545 13.0706C1.58165 14.4355 1.86978 16.4022 3.27081 17.4074C4.60396 18.3639 6.45519 18.0927 7.45793 16.794L10.0076 13.4917L11.5359 14.6717L8.98628 17.974Z" fill="#191F28"/>
</svg>
