<svg viewBox="0 0 24 24" fill="none" xmlns="http://www.w3.org/2000/svg">
<path fill-rule="evenodd" clip-rule="evenodd" d="M10.7318 4.66462C11.3723 3.83201 12.6278 3.83201 13.2682 4.66462L16.9959 9.51055C17.1085 9.65692 17.3066 9.70719 17.4754 9.63219L19.4154 8.76997C20.6241 8.23274 21.9256 9.31093 21.6227 10.5985L20.2655 16.3665C20.0954 17.0892 19.4505 17.6 18.708 17.6H5.33901C4.56263 17.6 3.89828 17.0427 3.76336 16.2781L2.75449 10.5612C2.52602 9.26653 3.86982 8.26411 5.04569 8.85205L6.5311 9.59475C6.70236 9.68038 6.91029 9.63263 7.02703 9.48086L10.7318 4.66462ZM12.3171 5.39628C12.157 5.18812 11.8431 5.18812 11.683 5.39628L7.97818 10.2125C7.5112 10.8196 6.67949 11.0106 5.99444 10.6681L4.50903 9.92536C4.21507 9.77838 3.87912 10.029 3.93623 10.3526L4.9451 16.0696C4.97883 16.2607 5.14492 16.4 5.33901 16.4H18.708C18.8936 16.4 19.0549 16.2723 19.0974 16.0917L20.4546 10.3237C20.5303 10.0018 20.2049 9.73223 19.9027 9.86654L17.9627 10.7288C17.2877 11.0288 16.4951 10.8277 16.0447 10.2422L12.3171 5.39628ZM4.40003 20C4.40003 19.6687 4.66866 19.4 5.00003 19.4H19C19.3314 19.4 19.6 19.6687 19.6 20C19.6 20.3314 19.3314 20.6 19 20.6H5.00003C4.66866 20.6 4.40003 20.3314 4.40003 20Z" fill="black"/>
</svg>
